# Blender v2.75 (sub 0) OBJ File: ''
# www.blender.org
o Earth224Tris_Untitled
v -0.000000 0.500000 0.000000
v -0.000000 0.461940 -0.191342
v -0.073224 0.461940 -0.176777
v -0.135300 0.461940 -0.135299
v -0.176777 0.461940 -0.073223
v -0.191342 0.461940 0.000000
v -0.176777 0.461940 0.073223
v -0.135300 0.461940 0.135299
v -0.073224 0.461940 0.176777
v -0.000000 0.461940 0.191342
v 0.073223 0.461940 0.176777
v 0.135299 0.461940 0.135299
v 0.176776 0.461940 0.073223
v 0.191341 0.461940 -0.000000
v 0.176776 0.461940 -0.073223
v 0.135298 0.461940 -0.135299
v 0.073223 0.461940 -0.176777
v -0.000000 0.353554 -0.353553
v -0.135300 0.353554 -0.326641
v -0.250000 0.353554 -0.250000
v -0.326641 0.353554 -0.135299
v -0.353554 0.353554 0.000000
v -0.326641 0.353554 0.135299
v -0.250001 0.353554 0.250000
v -0.135300 0.353554 0.326641
v -0.000000 0.353554 0.353553
v 0.135299 0.353554 0.326641
v 0.250000 0.353554 0.250000
v 0.326640 0.353554 0.135299
v 0.353553 0.353554 -0.000000
v 0.326640 0.353554 -0.135299
v 0.249999 0.353554 -0.250000
v 0.135298 0.353554 -0.326641
v -0.000000 0.191342 -0.461940
v -0.176777 0.191342 -0.426777
v -0.326641 0.191342 -0.326641
v -0.426777 0.191342 -0.176777
v -0.461940 0.191342 -0.000000
v -0.426777 0.191342 0.176777
v -0.326641 0.191342 0.326641
v -0.176777 0.191342 0.426777
v -0.000000 0.191342 0.461940
v 0.176776 0.191342 0.426777
v 0.326640 0.191342 0.326641
v 0.426776 0.191342 0.176777
v 0.461939 0.191342 -0.000000
v 0.426776 0.191342 -0.176777
v 0.326640 0.191342 -0.326641
v 0.176776 0.191342 -0.426777
v -0.000000 0.000000 -0.500000
v -0.191342 0.000000 -0.461940
v -0.353554 0.000000 -0.353553
v -0.461940 0.000000 -0.191342
v -0.500000 0.000000 -0.000000
v -0.461940 0.000000 0.191342
v -0.353554 0.000000 0.353553
v -0.191342 0.000000 0.461940
v -0.000000 0.000000 0.500000
v 0.191341 0.000000 0.461940
v 0.353553 0.000000 0.353553
v 0.461939 0.000000 0.191342
v 0.500000 0.000000 -0.000000
v 0.461939 0.000000 -0.191342
v 0.353553 0.000000 -0.353554
v 0.191341 0.000000 -0.461940
v -0.000000 -0.191342 -0.461940
v -0.176777 -0.191342 -0.426777
v -0.326641 -0.191342 -0.326641
v -0.426777 -0.191342 -0.176777
v -0.461940 -0.191342 -0.000000
v -0.426777 -0.191342 0.176777
v -0.326641 -0.191342 0.326641
v -0.176777 -0.191342 0.426777
v -0.000000 -0.191342 0.461940
v 0.176776 -0.191342 0.426777
v 0.326640 -0.191342 0.326641
v 0.426776 -0.191342 0.176777
v 0.461939 -0.191342 -0.000000
v 0.426776 -0.191342 -0.176777
v 0.326640 -0.191342 -0.326641
v 0.176776 -0.191342 -0.426777
v -0.000000 -0.353553 -0.353553
v -0.135300 -0.353553 -0.326641
v -0.250000 -0.353553 -0.250000
v -0.326641 -0.353553 -0.135299
v -0.353554 -0.353553 0.000000
v -0.326641 -0.353553 0.135299
v -0.250001 -0.353553 0.250000
v -0.135300 -0.353553 0.326641
v -0.000000 -0.353553 0.353553
v 0.135299 -0.353553 0.326641
v 0.250000 -0.353553 0.250000
v 0.326640 -0.353553 0.135299
v 0.353553 -0.353553 -0.000000
v 0.326640 -0.353553 -0.135299
v 0.249999 -0.353553 -0.250000
v 0.135298 -0.353553 -0.326641
v -0.000000 -0.461940 -0.191342
v -0.073224 -0.461940 -0.176777
v -0.135300 -0.461940 -0.135299
v -0.176777 -0.461940 -0.073223
v -0.191342 -0.461940 0.000000
v -0.176777 -0.461940 0.073223
v -0.135300 -0.461940 0.135299
v -0.073224 -0.461940 0.176777
v -0.000000 -0.461940 0.191342
v 0.073223 -0.461940 0.176777
v 0.135299 -0.461940 0.135299
v 0.176776 -0.461940 0.073223
v 0.191341 -0.461940 -0.000000
v 0.176776 -0.461940 -0.073223
v 0.135299 -0.461940 -0.135299
v 0.073223 -0.461940 -0.176777
v -0.000000 -0.500000 0.000000
vt 0.000000 1.000000
vt 0.000000 0.875000
vt 0.062500 0.875000
vt 0.062500 1.000000
vt 0.125000 0.875000
vt 0.125000 1.000000
vt 0.187500 0.875000
vt 0.187500 1.000000
vt 0.250000 0.875000
vt 0.250000 1.000000
vt 0.312500 0.875000
vt 0.312500 1.000000
vt 0.375000 0.875000
vt 0.375000 1.000000
vt 0.437500 0.875000
vt 0.437500 1.000000
vt 0.500000 0.875000
vt 0.500000 1.000000
vt 0.562500 0.875000
vt 0.562500 1.000000
vt 0.625000 0.875000
vt 0.625000 1.000000
vt 0.687500 0.875000
vt 0.687500 1.000000
vt 0.750000 0.875000
vt 0.750000 1.000000
vt 0.812500 0.875000
vt 0.812500 1.000000
vt 0.875000 0.875000
vt 0.875000 1.000000
vt 0.937500 0.875000
vt 0.937500 1.000000
vt 1.000000 0.875000
vt 0.062500 0.750000
vt 0.000000 0.750000
vt 0.125000 0.750000
vt 0.187500 0.750000
vt 0.250000 0.750000
vt 0.312500 0.750000
vt 0.375000 0.750000
vt 0.437500 0.750000
vt 0.500000 0.750000
vt 0.562500 0.750000
vt 0.625000 0.750000
vt 0.687500 0.750000
vt 0.750000 0.750000
vt 0.812500 0.750000
vt 0.875000 0.750000
vt 0.937500 0.750000
vt 1.000000 0.750000
vt 0.062500 0.625000
vt 0.000000 0.625000
vt 0.125000 0.625000
vt 0.187500 0.625000
vt 0.250000 0.625000
vt 0.312500 0.625000
vt 0.375000 0.625000
vt 0.437500 0.625000
vt 0.500000 0.625000
vt 0.562500 0.625000
vt 0.625000 0.625000
vt 0.687500 0.625000
vt 0.750000 0.625000
vt 0.812500 0.625000
vt 0.875000 0.625000
vt 0.937500 0.625000
vt 1.000000 0.625000
vt 0.062500 0.500000
vt 0.000000 0.500000
vt 0.125000 0.500000
vt 0.187500 0.500000
vt 0.250000 0.500000
vt 0.312500 0.500000
vt 0.375000 0.500000
vt 0.437500 0.500000
vt 0.500000 0.500000
vt 0.562500 0.500000
vt 0.625000 0.500000
vt 0.687500 0.500000
vt 0.750000 0.500000
vt 0.812500 0.500000
vt 0.875000 0.500000
vt 0.937500 0.500000
vt 1.000000 0.500000
vt 0.062500 0.375000
vt 0.000000 0.375000
vt 0.125000 0.375000
vt 0.187500 0.375000
vt 0.250000 0.375000
vt 0.312500 0.375000
vt 0.375000 0.375000
vt 0.437500 0.375000
vt 0.500000 0.375000
vt 0.562500 0.375000
vt 0.625000 0.375000
vt 0.687500 0.375000
vt 0.750000 0.375000
vt 0.812500 0.375000
vt 0.875000 0.375000
vt 0.937500 0.375000
vt 1.000000 0.375000
vt 0.062500 0.250000
vt 0.000000 0.250000
vt 0.125000 0.250000
vt 0.187500 0.250000
vt 0.250000 0.250000
vt 0.312500 0.250000
vt 0.375000 0.250000
vt 0.437500 0.250000
vt 0.500000 0.250000
vt 0.562500 0.250000
vt 0.625000 0.250000
vt 0.687500 0.250000
vt 0.750000 0.250000
vt 0.812500 0.250000
vt 0.875000 0.250000
vt 0.937500 0.250000
vt 1.000000 0.250000
vt 0.062500 0.125000
vt 0.000000 0.125000
vt 0.125000 0.125000
vt 0.187500 0.125000
vt 0.250000 0.125000
vt 0.312500 0.125000
vt 0.375000 0.125000
vt 0.437500 0.125000
vt 0.500000 0.125000
vt 0.562500 0.125000
vt 0.625000 0.125000
vt 0.687500 0.125000
vt 0.750000 0.125000
vt 0.812500 0.125000
vt 0.875000 0.125000
vt 0.937500 0.125000
vt 1.000000 0.125000
vt 0.000000 0.000000
vt 0.062500 0.000000
vt 0.125000 0.000000
vt 0.187500 0.000000
vt 0.250000 0.000000
vt 0.312500 0.000000
vt 0.375000 0.000000
vt 0.437500 0.000000
vt 0.500000 0.000000
vt 0.562500 0.000000
vt 0.625000 0.000000
vt 0.687500 0.000000
vt 0.750000 0.000000
vt 0.812500 0.000000
vt 0.875000 0.000000
vt 0.937500 0.000000
vn 0.000000 1.000000 -0.000000
vn -0.000000 0.915200 -0.403100
vn -0.154300 0.915200 -0.372400
vn -0.285000 0.915200 -0.285000
vn -0.372400 0.915200 -0.154300
vn -0.403100 0.915200 0.000000
vn -0.372400 0.915200 0.154300
vn -0.285000 0.915200 0.285000
vn -0.154300 0.915200 0.372400
vn -0.000000 0.915200 0.403100
vn 0.154300 0.915200 0.372400
vn 0.285000 0.915200 0.285000
vn 0.372400 0.915200 0.154300
vn 0.403100 0.915200 -0.000000
vn 0.372400 0.915200 -0.154300
vn 0.285000 0.915200 -0.285000
vn 0.154300 0.915200 -0.372400
vn -0.275100 0.695200 -0.664100
vn -0.000000 0.695200 -0.718900
vn -0.508300 0.695200 -0.508300
vn -0.664100 0.695200 -0.275100
vn -0.718900 0.695200 -0.000000
vn -0.664100 0.695200 0.275100
vn -0.508300 0.695200 0.508300
vn -0.275100 0.695200 0.664100
vn -0.000000 0.695200 0.718900
vn 0.275100 0.695200 0.664100
vn 0.508300 0.695200 0.508300
vn 0.664100 0.695200 0.275100
vn 0.718900 0.695200 -0.000000
vn 0.664100 0.695200 -0.275100
vn 0.508300 0.695200 -0.508300
vn 0.275100 0.695200 -0.664100
vn -0.354900 0.374400 -0.856700
vn -0.000000 0.374400 -0.927300
vn -0.655700 0.374400 -0.655700
vn -0.856700 0.374400 -0.354900
vn -0.927300 0.374400 -0.000000
vn -0.856700 0.374400 0.354900
vn -0.655700 0.374400 0.655700
vn -0.354900 0.374400 0.856700
vn 0.000000 0.374400 0.927300
vn 0.354900 0.374400 0.856700
vn 0.655700 0.374400 0.655700
vn 0.856700 0.374400 0.354900
vn 0.927300 0.374400 -0.000000
vn 0.856700 0.374400 -0.354900
vn 0.655700 0.374400 -0.655700
vn 0.354900 0.374400 -0.856700
vn -0.382700 -0.000000 -0.923900
vn -0.000000 0.000000 -1.000000
vn -0.707100 0.000000 -0.707100
vn -0.923900 -0.000000 -0.382700
vn -1.000000 -0.000000 -0.000000
vn -0.923900 0.000000 0.382700
vn -0.707100 0.000000 0.707100
vn -0.382700 0.000000 0.923900
vn 0.000000 -0.000000 1.000000
vn 0.382700 0.000000 0.923900
vn 0.707100 0.000000 0.707100
vn 0.923900 -0.000000 0.382700
vn 1.000000 -0.000000 -0.000000
vn 0.923900 -0.000000 -0.382700
vn 0.707100 -0.000000 -0.707100
vn 0.382700 0.000000 -0.923900
vn -0.354900 -0.374400 -0.856700
vn -0.000000 -0.374400 -0.927300
vn -0.655700 -0.374400 -0.655700
vn -0.856700 -0.374400 -0.354900
vn -0.927300 -0.374400 -0.000000
vn -0.856700 -0.374400 0.354900
vn -0.655700 -0.374400 0.655700
vn -0.354900 -0.374400 0.856700
vn 0.000000 -0.374400 0.927300
vn 0.354900 -0.374400 0.856700
vn 0.655700 -0.374400 0.655700
vn 0.856700 -0.374400 0.354900
vn 0.927300 -0.374400 -0.000000
vn 0.856700 -0.374400 -0.354900
vn 0.655700 -0.374400 -0.655700
vn 0.354900 -0.374400 -0.856700
vn -0.275100 -0.695200 -0.664100
vn -0.000000 -0.695200 -0.718900
vn -0.508300 -0.695200 -0.508300
vn -0.664100 -0.695200 -0.275100
vn -0.718900 -0.695200 -0.000000
vn -0.664100 -0.695200 0.275100
vn -0.508300 -0.695200 0.508300
vn -0.275100 -0.695200 0.664100
vn -0.000000 -0.695200 0.718900
vn 0.275100 -0.695200 0.664100
vn 0.508300 -0.695200 0.508300
vn 0.664100 -0.695200 0.275100
vn 0.718900 -0.695200 -0.000000
vn 0.664100 -0.695200 -0.275100
vn 0.508300 -0.695200 -0.508300
vn 0.275100 -0.695200 -0.664100
vn -0.154300 -0.915200 -0.372400
vn -0.000000 -0.915200 -0.403100
vn -0.285000 -0.915200 -0.285000
vn -0.372400 -0.915200 -0.154300
vn -0.403100 -0.915200 -0.000000
vn -0.372400 -0.915200 0.154300
vn -0.285000 -0.915200 0.285000
vn -0.154300 -0.915200 0.372400
vn 0.000000 -0.915200 0.403100
vn 0.154300 -0.915200 0.372400
vn 0.285000 -0.915200 0.285000
vn 0.372400 -0.915200 0.154300
vn 0.403100 -0.915200 -0.000000
vn 0.372400 -0.915200 -0.154300
vn 0.285000 -0.915200 -0.285000
vn 0.154300 -0.915200 -0.372400
vn -0.000000 -1.000000 0.000000
s 1
f 1/1/1 2/2/2 3/3/3
f 1/4/1 3/3/3 4/5/4
f 1/6/1 4/5/4 5/7/5
f 1/8/1 5/7/5 6/9/6
f 1/10/1 6/9/6 7/11/7
f 1/12/1 7/11/7 8/13/8
f 1/14/1 8/13/8 9/15/9
f 1/16/1 9/15/9 10/17/10
f 1/18/1 10/17/10 11/19/11
f 1/20/1 11/19/11 12/21/12
f 1/22/1 12/21/12 13/23/13
f 1/24/1 13/23/13 14/25/14
f 1/26/1 14/25/14 15/27/15
f 1/28/1 15/27/15 16/29/16
f 1/30/1 16/29/16 17/31/17
f 1/32/1 17/31/17 2/33/2
f 19/34/18 3/3/3 2/2/2
f 2/2/2 18/35/19 19/34/18
f 20/36/20 4/5/4 3/3/3
f 3/3/3 19/34/18 20/36/20
f 21/37/21 5/7/5 4/5/4
f 4/5/4 20/36/20 21/37/21
f 22/38/22 6/9/6 5/7/5
f 5/7/5 21/37/21 22/38/22
f 23/39/23 7/11/7 6/9/6
f 6/9/6 22/38/22 23/39/23
f 24/40/24 8/13/8 7/11/7
f 7/11/7 23/39/23 24/40/24
f 25/41/25 9/15/9 8/13/8
f 8/13/8 24/40/24 25/41/25
f 26/42/26 10/17/10 9/15/9
f 9/15/9 25/41/25 26/42/26
f 27/43/27 11/19/11 10/17/10
f 10/17/10 26/42/26 27/43/27
f 28/44/28 12/21/12 11/19/11
f 11/19/11 27/43/27 28/44/28
f 29/45/29 13/23/13 12/21/12
f 12/21/12 28/44/28 29/45/29
f 30/46/30 14/25/14 13/23/13
f 13/23/13 29/45/29 30/46/30
f 31/47/31 15/27/15 14/25/14
f 14/25/14 30/46/30 31/47/31
f 32/48/32 16/29/16 15/27/15
f 15/27/15 31/47/31 32/48/32
f 33/49/33 17/31/17 16/29/16
f 16/29/16 32/48/32 33/49/33
f 18/50/19 2/33/2 17/31/17
f 17/31/17 33/49/33 18/50/19
f 35/51/34 19/34/18 18/35/19
f 18/35/19 34/52/35 35/51/34
f 36/53/36 20/36/20 19/34/18
f 19/34/18 35/51/34 36/53/36
f 37/54/37 21/37/21 20/36/20
f 20/36/20 36/53/36 37/54/37
f 38/55/38 22/38/22 21/37/21
f 21/37/21 37/54/37 38/55/38
f 39/56/39 23/39/23 22/38/22
f 22/38/22 38/55/38 39/56/39
f 40/57/40 24/40/24 23/39/23
f 23/39/23 39/56/39 40/57/40
f 41/58/41 25/41/25 24/40/24
f 24/40/24 40/57/40 41/58/41
f 42/59/42 26/42/26 25/41/25
f 25/41/25 41/58/41 42/59/42
f 43/60/43 27/43/27 26/42/26
f 26/42/26 42/59/42 43/60/43
f 44/61/44 28/44/28 27/43/27
f 27/43/27 43/60/43 44/61/44
f 45/62/45 29/45/29 28/44/28
f 28/44/28 44/61/44 45/62/45
f 46/63/46 30/46/30 29/45/29
f 29/45/29 45/62/45 46/63/46
f 47/64/47 31/47/31 30/46/30
f 30/46/30 46/63/46 47/64/47
f 48/65/48 32/48/32 31/47/31
f 31/47/31 47/64/47 48/65/48
f 49/66/49 33/49/33 32/48/32
f 32/48/32 48/65/48 49/66/49
f 34/67/35 18/50/19 33/49/33
f 33/49/33 49/66/49 34/67/35
f 51/68/50 35/51/34 34/52/35
f 34/52/35 50/69/51 51/68/50
f 52/70/52 36/53/36 35/51/34
f 35/51/34 51/68/50 52/70/52
f 53/71/53 37/54/37 36/53/36
f 36/53/36 52/70/52 53/71/53
f 54/72/54 38/55/38 37/54/37
f 37/54/37 53/71/53 54/72/54
f 55/73/55 39/56/39 38/55/38
f 38/55/38 54/72/54 55/73/55
f 56/74/56 40/57/40 39/56/39
f 39/56/39 55/73/55 56/74/56
f 57/75/57 41/58/41 40/57/40
f 40/57/40 56/74/56 57/75/57
f 58/76/58 42/59/42 41/58/41
f 41/58/41 57/75/57 58/76/58
f 59/77/59 43/60/43 42/59/42
f 42/59/42 58/76/58 59/77/59
f 60/78/60 44/61/44 43/60/43
f 43/60/43 59/77/59 60/78/60
f 61/79/61 45/62/45 44/61/44
f 44/61/44 60/78/60 61/79/61
f 62/80/62 46/63/46 45/62/45
f 45/62/45 61/79/61 62/80/62
f 63/81/63 47/64/47 46/63/46
f 46/63/46 62/80/62 63/81/63
f 64/82/64 48/65/48 47/64/47
f 47/64/47 63/81/63 64/82/64
f 65/83/65 49/66/49 48/65/48
f 48/65/48 64/82/64 65/83/65
f 50/84/51 34/67/35 49/66/49
f 49/66/49 65/83/65 50/84/51
f 67/85/66 51/68/50 50/69/51
f 50/69/51 66/86/67 67/85/66
f 68/87/68 52/70/52 51/68/50
f 51/68/50 67/85/66 68/87/68
f 69/88/69 53/71/53 52/70/52
f 52/70/52 68/87/68 69/88/69
f 70/89/70 54/72/54 53/71/53
f 53/71/53 69/88/69 70/89/70
f 71/90/71 55/73/55 54/72/54
f 54/72/54 70/89/70 71/90/71
f 72/91/72 56/74/56 55/73/55
f 55/73/55 71/90/71 72/91/72
f 73/92/73 57/75/57 56/74/56
f 56/74/56 72/91/72 73/92/73
f 74/93/74 58/76/58 57/75/57
f 57/75/57 73/92/73 74/93/74
f 75/94/75 59/77/59 58/76/58
f 58/76/58 74/93/74 75/94/75
f 76/95/76 60/78/60 59/77/59
f 59/77/59 75/94/75 76/95/76
f 77/96/77 61/79/61 60/78/60
f 60/78/60 76/95/76 77/96/77
f 78/97/78 62/80/62 61/79/61
f 61/79/61 77/96/77 78/97/78
f 79/98/79 63/81/63 62/80/62
f 62/80/62 78/97/78 79/98/79
f 80/99/80 64/82/64 63/81/63
f 63/81/63 79/98/79 80/99/80
f 81/100/81 65/83/65 64/82/64
f 64/82/64 80/99/80 81/100/81
f 66/101/67 50/84/51 65/83/65
f 65/83/65 81/100/81 66/101/67
f 83/102/82 67/85/66 66/86/67
f 66/86/67 82/103/83 83/102/82
f 84/104/84 68/87/68 67/85/66
f 67/85/66 83/102/82 84/104/84
f 85/105/85 69/88/69 68/87/68
f 68/87/68 84/104/84 85/105/85
f 86/106/86 70/89/70 69/88/69
f 69/88/69 85/105/85 86/106/86
f 87/107/87 71/90/71 70/89/70
f 70/89/70 86/106/86 87/107/87
f 88/108/88 72/91/72 71/90/71
f 71/90/71 87/107/87 88/108/88
f 89/109/89 73/92/73 72/91/72
f 72/91/72 88/108/88 89/109/89
f 90/110/90 74/93/74 73/92/73
f 73/92/73 89/109/89 90/110/90
f 91/111/91 75/94/75 74/93/74
f 74/93/74 90/110/90 91/111/91
f 92/112/92 76/95/76 75/94/75
f 75/94/75 91/111/91 92/112/92
f 93/113/93 77/96/77 76/95/76
f 76/95/76 92/112/92 93/113/93
f 94/114/94 78/97/78 77/96/77
f 77/96/77 93/113/93 94/114/94
f 95/115/95 79/98/79 78/97/78
f 78/97/78 94/114/94 95/115/95
f 96/116/96 80/99/80 79/98/79
f 79/98/79 95/115/95 96/116/96
f 97/117/97 81/100/81 80/99/80
f 80/99/80 96/116/96 97/117/97
f 82/118/83 66/101/67 81/100/81
f 81/100/81 97/117/97 82/118/83
f 99/119/98 83/102/82 82/103/83
f 82/103/83 98/120/99 99/119/98
f 100/121/100 84/104/84 83/102/82
f 83/102/82 99/119/98 100/121/100
f 101/122/101 85/105/85 84/104/84
f 84/104/84 100/121/100 101/122/101
f 102/123/102 86/106/86 85/105/85
f 85/105/85 101/122/101 102/123/102
f 103/124/103 87/107/87 86/106/86
f 86/106/86 102/123/102 103/124/103
f 104/125/104 88/108/88 87/107/87
f 87/107/87 103/124/103 104/125/104
f 105/126/105 89/109/89 88/108/88
f 88/108/88 104/125/104 105/126/105
f 106/127/106 90/110/90 89/109/89
f 89/109/89 105/126/105 106/127/106
f 107/128/107 91/111/91 90/110/90
f 90/110/90 106/127/106 107/128/107
f 108/129/108 92/112/92 91/111/91
f 91/111/91 107/128/107 108/129/108
f 109/130/109 93/113/93 92/112/92
f 92/112/92 108/129/108 109/130/109
f 110/131/110 94/114/94 93/113/93
f 93/113/93 109/130/109 110/131/110
f 111/132/111 95/115/95 94/114/94
f 94/114/94 110/131/110 111/132/111
f 112/133/112 96/116/96 95/115/95
f 95/115/95 111/132/111 112/133/112
f 113/134/113 97/117/97 96/116/96
f 96/116/96 112/133/112 113/134/113
f 98/135/99 82/118/83 97/117/97
f 97/117/97 113/134/113 98/135/99
f 114/136/114 99/119/98 98/120/99
f 114/137/114 100/121/100 99/119/98
f 114/138/114 101/122/101 100/121/100
f 114/139/114 102/123/102 101/122/101
f 114/140/114 103/124/103 102/123/102
f 114/141/114 104/125/104 103/124/103
f 114/142/114 105/126/105 104/125/104
f 114/143/114 106/127/106 105/126/105
f 114/144/114 107/128/107 106/127/106
f 114/145/114 108/129/108 107/128/107
f 114/146/114 109/130/109 108/129/108
f 114/147/114 110/131/110 109/130/109
f 114/148/114 111/132/111 110/131/110
f 114/149/114 112/133/112 111/132/111
f 114/150/114 113/134/113 112/133/112
f 114/151/114 98/135/99 113/134/113
