# Blender v2.75 (sub 0) OBJ File: ''
# www.blender.org
o Heart_Untitled
v 0.000000 0.066855 -0.005658
v -0.015058 0.075111 -0.017659
v -0.026704 0.082307 -0.017659
v -0.041778 0.084059 -0.017659
v -0.057754 0.080238 -0.017659
v -0.071574 0.071347 -0.017659
v -0.080702 0.058254 -0.017659
v -0.083334 0.040636 -0.017659
v -0.079754 0.021515 -0.017659
v -0.069168 0.005161 -0.017659
v 0.000000 -0.076649 -0.017659
v 0.069168 0.005161 -0.017659
v 0.079754 0.021515 -0.017659
v 0.083334 0.040636 -0.017659
v 0.080702 0.058254 -0.017659
v 0.071574 0.071347 -0.017659
v 0.057754 0.080238 -0.017659
v 0.041778 0.084059 -0.017659
v 0.026704 0.082307 -0.017659
v 0.009655 0.082816 -0.005658
v 0.000000 -0.076649 0.017659
v 0.081250 -0.003737 0.005658
v 0.093914 0.015828 0.005659
v 0.098343 0.039486 0.005659
v 0.095000 0.061863 0.005659
v 0.083054 0.078998 0.005659
v 0.065527 0.090274 0.005659
v 0.045439 0.095079 0.005659
v 0.025808 0.092797 0.005659
v 0.009655 0.082816 0.005659
v 0.000000 0.054348 0.017659
v -0.009655 0.082816 0.005659
v -0.025808 0.092797 0.005659
v -0.045439 0.095079 0.005659
v -0.065527 0.090274 0.005659
v -0.083054 0.078998 0.005659
v -0.095000 0.061863 0.005659
v -0.098343 0.039486 0.005658
v -0.093914 0.015828 0.005658
v -0.069168 0.005161 0.017659
v 0.000000 0.054348 -0.017659
v -0.009655 0.082816 -0.005658
v -0.025808 0.092797 -0.005658
v -0.045439 0.095079 -0.005658
v -0.065527 0.090274 -0.005658
v -0.083054 0.078998 -0.005658
v -0.095000 0.061863 -0.005658
v -0.098343 0.039486 -0.005658
v -0.093914 0.015828 -0.005658
v -0.081250 -0.003737 -0.005658
v 0.000000 -0.095079 -0.005659
v 0.081250 -0.003737 -0.005658
v 0.093914 0.015828 -0.005658
v 0.098343 0.039486 -0.005658
v 0.095000 0.061863 -0.005658
v 0.083054 0.078998 -0.005658
v 0.065527 0.090274 -0.005658
v 0.045439 0.095079 -0.005658
v 0.025808 0.092797 -0.005658
v 0.015058 0.075111 -0.017659
v 0.000000 -0.095079 0.005658
v 0.069168 0.005161 0.017659
v 0.079754 0.021515 0.017659
v 0.083334 0.040636 0.017659
v 0.080702 0.058254 0.017659
v 0.071574 0.071347 0.017659
v 0.057754 0.080238 0.017659
v 0.041778 0.084059 0.017659
v 0.026704 0.082307 0.017659
v 0.015058 0.075111 0.017659
v 0.000000 0.066855 0.005659
v -0.015058 0.075111 0.017659
v -0.026704 0.082307 0.017659
v -0.041778 0.084059 0.017659
v -0.057754 0.080238 0.017659
v -0.071574 0.071347 0.017659
v -0.080702 0.058254 0.017659
v -0.083334 0.040636 0.017659
v -0.079754 0.021515 0.017659
v -0.081250 -0.003737 0.005658
v -0.000000 -0.050163 0.024263
v 0.055405 0.015368 0.024263
v 0.063566 0.027976 0.024263
v 0.065996 0.040955 0.024263
v 0.064381 0.051763 0.024263
v 0.059479 0.058794 0.024263
v 0.050947 0.064283 0.024263
v 0.040745 0.066723 0.024263
v 0.032457 0.065760 0.024263
v 0.026667 0.062182 0.024263
v 0.000000 0.027890 0.024263
v -0.026667 0.062182 0.024263
v -0.032457 0.065760 0.024263
v -0.040745 0.066723 0.024263
v -0.050947 0.064283 0.024263
v -0.059479 0.058794 0.024263
v -0.064381 0.051763 0.024263
v -0.065996 0.040955 0.024263
v -0.063566 0.027976 0.024263
v -0.055405 0.015368 0.024263
v 0.055405 0.015368 -0.024263
v -0.000000 -0.050163 -0.024263
v -0.055405 0.015368 -0.024263
v -0.063566 0.027976 -0.024263
v -0.065996 0.040955 -0.024263
v -0.064381 0.051763 -0.024263
v -0.059479 0.058794 -0.024263
v -0.050947 0.064283 -0.024263
v -0.040745 0.066723 -0.024263
v -0.032457 0.065760 -0.024263
v -0.026667 0.062182 -0.024263
v 0.000000 0.027890 -0.024263
v 0.026667 0.062182 -0.024263
v 0.032457 0.065760 -0.024263
v 0.040745 0.066723 -0.024263
v 0.050947 0.064283 -0.024263
v 0.059479 0.058794 -0.024263
v 0.064381 0.051763 -0.024263
v 0.065996 0.040955 -0.024263
v 0.063566 0.027976 -0.024263
vt 0.527231 0.838855
vt 0.511905 0.861146
vt 0.485094 0.878643
vt 0.452949 0.886552
vt 0.426775 0.883682
vt 0.408430 0.872510
vt 0.323573 0.764840
vt 0.321973 0.518528
vt 0.498159 0.724190
vt 0.524170 0.763809
vt 0.532105 0.804717
vt 0.991613 0.013681
vt 0.991613 0.049395
vt 0.605822 0.049395
vt 0.605822 0.013681
vt 0.532275 0.049395
vt 0.532275 0.013681
vt 0.456319 0.049395
vt 0.456319 0.013681
vt 0.384916 0.049395
vt 0.384916 0.013681
vt 0.319001 0.049395
vt 0.319001 0.013681
vt 0.253231 0.049395
vt 0.253231 0.013681
vt 0.188047 0.049395
vt 0.188047 0.013681
vt 0.125680 0.049395
vt 0.125680 0.013681
vt 0.065758 0.049395
vt 0.065758 0.013681
vt 0.006889 0.049395
vt 0.006889 0.013681
vt 0.008108 0.096352
vt 0.008108 0.060638
vt 0.066978 0.060638
vt 0.066978 0.096352
vt 0.126900 0.060638
vt 0.126900 0.096352
vt 0.189267 0.060638
vt 0.189267 0.096352
vt 0.254450 0.060639
vt 0.254450 0.096352
vt 0.320220 0.060638
vt 0.320220 0.096352
vt 0.386135 0.060638
vt 0.386135 0.096352
vt 0.457538 0.060638
vt 0.457538 0.096352
vt 0.533494 0.060638
vt 0.533494 0.096352
vt 0.607041 0.060638
vt 0.607041 0.096352
vt 0.992832 0.060638
vt 0.992832 0.096352
vt 0.874597 0.253553
vt 0.879912 0.287626
vt 0.872504 0.328633
vt 0.847006 0.368584
vt 0.673486 0.576500
vt 0.671910 0.330189
vt 0.755372 0.221433
vt 0.773572 0.210025
vt 0.799706 0.206818
vt 0.831951 0.214312
vt 0.858986 0.231462
vt 0.542547 0.208463
vt 0.568720 0.211335
vt 0.587064 0.222509
vt 0.497321 0.370821
vt 0.471313 0.331200
vt 0.463382 0.290290
vt 0.468260 0.256153
vt 0.483588 0.233864
vt 0.510400 0.216369
vt 0.115576 0.807423
vt 0.122979 0.766414
vt 0.148474 0.726461
vt 0.240122 0.873603
vt 0.221923 0.885013
vt 0.195789 0.888222
vt 0.163544 0.880731
vt 0.136507 0.863584
vt 0.120893 0.841494
vt 0.891079 0.400859
vt 0.934510 0.432479
vt 0.674442 0.723523
vt 0.674022 0.660380
vt 0.410624 0.435805
vt 0.453666 0.403660
vt 0.924220 0.348889
vt 0.974906 0.368867
vt 0.369420 0.372700
vt 0.419860 0.352113
vt 0.354360 0.295718
vt 0.408135 0.291658
vt 0.364815 0.222250
vt 0.416135 0.235803
vt 0.403499 0.165109
vt 0.444790 0.194117
vt 0.460653 0.127132
vt 0.488383 0.165663
vt 0.718143 0.180435
vt 0.694481 0.149436
vt 0.748871 0.116020
vt 0.754906 0.157423
vt 0.671376 0.246363
vt 0.671085 0.200471
vt 0.814390 0.108505
vt 0.802643 0.151553
vt 0.880594 0.124467
vt 0.853318 0.163329
vt 0.938223 0.161726
vt 0.897271 0.191222
vt 0.977617 0.218380
vt 0.926457 0.232538
vt 0.988991 0.291705
vt 0.935172 0.288286
vt 0.526651 0.110340
vt 0.538903 0.153240
vt 0.647039 0.149756
vt 0.623769 0.181039
vt 0.586707 0.158496
vt 0.592247 0.117039
vt 0.541812 0.691350
vt 0.321428 0.434647
vt 0.321001 0.371504
vt 0.584830 0.659170
vt 0.626044 0.722259
vt 0.575621 0.742888
vt 0.641123 0.799232
vt 0.587352 0.803345
vt 0.630696 0.872698
vt 0.579358 0.859200
vt 0.592035 0.929854
vt 0.550707 0.900889
vt 0.534891 0.967853
vt 0.507117 0.929346
vt 0.468898 0.984668
vt 0.456597 0.941775
vt 0.403288 0.977998
vt 0.408788 0.936520
vt 0.348472 0.945285
vt 0.371732 0.913985
vt 0.324419 0.894556
vt 0.324119 0.848665
vt 0.277358 0.914597
vt 0.301030 0.945577
vt 0.246664 0.978997
vt 0.240590 0.937615
vt 0.181160 0.986542
vt 0.192857 0.943487
vt 0.114951 0.970602
vt 0.142182 0.931717
vt 0.057311 0.933365
vt 0.098225 0.903828
vt 0.017895 0.876728
vt 0.069035 0.862514
vt 0.006489 0.803394
vt 0.060316 0.806765
vt 0.020565 0.726196
vt 0.071261 0.746168
vt 0.060964 0.662574
vt 0.104397 0.694190
vn 0.189500 0.075400 0.979000
vn 0.139800 0.145100 0.979500
vn 0.078300 0.183500 0.979900
vn 0.011900 0.199700 0.979800
vn -0.066700 0.192000 0.979100
vn -0.133800 0.149000 0.979700
vn -0.000200 0.050900 0.998700
vn -0.000000 -0.186600 0.982400
vn 0.152600 -0.113200 0.981800
vn 0.187200 -0.074700 0.979500
vn 0.199300 -0.003700 0.979900
vn 0.000000 -0.914100 0.405400
vn 0.001900 -0.915100 -0.403100
vn 0.720200 -0.548100 -0.425200
vn 0.720200 -0.548100 0.425200
vn 0.844100 -0.337000 -0.417100
vn 0.844100 -0.337000 0.417100
vn 0.908900 -0.018100 -0.416700
vn 0.908900 -0.018100 0.416700
vn 0.850900 0.333900 -0.405500
vn 0.850900 0.333900 0.405500
vn 0.642700 0.658100 -0.392300
vn 0.642700 0.658100 0.392300
vn 0.369700 0.850100 -0.374900
vn 0.369700 0.850100 0.374900
vn 0.062400 0.932800 -0.354900
vn 0.062400 0.932800 0.354900
vn -0.302500 0.893600 -0.331600
vn -0.302500 0.893600 0.331600
vn -0.666500 0.681600 -0.302100
vn -0.671500 0.673300 0.309500
vn 0.000000 0.865200 -0.501500
vn -0.000000 0.838400 0.545100
vn 0.666500 0.681600 -0.302100
vn 0.671500 0.673300 0.309500
vn 0.302500 0.893600 -0.331600
vn 0.302500 0.893600 0.331600
vn -0.062400 0.932800 -0.354900
vn -0.062400 0.932800 0.354900
vn -0.369700 0.850100 -0.374900
vn -0.369700 0.850100 0.374900
vn -0.642700 0.658100 -0.392300
vn -0.642700 0.658100 0.392300
vn -0.850900 0.333900 -0.405500
vn -0.850900 0.333900 0.405500
vn -0.908900 -0.018100 -0.416700
vn -0.908900 -0.018100 0.416700
vn -0.844100 -0.337000 -0.417100
vn -0.844100 -0.337000 0.417100
vn -0.723300 -0.545800 -0.423100
vn -0.720200 -0.548100 0.425200
vn 0.189500 0.075400 -0.979000
vn 0.199300 -0.003700 -0.979900
vn 0.187200 -0.074700 -0.979500
vn 0.152600 -0.113200 -0.981800
vn 0.000000 -0.186600 -0.982400
vn 0.000200 0.050900 -0.998700
vn -0.136800 0.148700 -0.979400
vn -0.066700 0.191900 -0.979100
vn 0.011900 0.199700 -0.979800
vn 0.078300 0.183500 -0.979900
vn 0.139800 0.145100 -0.979500
vn -0.011900 0.199700 -0.979800
vn 0.066700 0.191900 -0.979100
vn 0.133800 0.149000 -0.979700
vn -0.152600 -0.113200 -0.981800
vn -0.187200 -0.074700 -0.979500
vn -0.199300 -0.003700 -0.979900
vn -0.189500 0.075400 -0.979000
vn -0.139800 0.145100 -0.979500
vn -0.078300 0.183500 -0.979900
vn -0.199300 -0.003700 0.979900
vn -0.187200 -0.074700 0.979500
vn -0.152600 -0.113200 0.981800
vn 0.136800 0.148700 0.979400
vn 0.066700 0.191900 0.979100
vn -0.011900 0.199700 0.979800
vn -0.078300 0.183500 0.979900
vn -0.139800 0.145100 0.979500
vn -0.189500 0.075400 0.979000
vn 0.403000 -0.303800 -0.863300
vn 0.009900 -0.466300 -0.884600
vn -0.403600 -0.299400 -0.864500
vn 0.469900 -0.187500 -0.862600
vn -0.469900 -0.187500 -0.862600
vn -0.508100 -0.007500 -0.861300
vn -0.478900 0.197400 -0.855400
vn -0.365300 0.391700 -0.844500
vn -0.209800 0.513900 -0.831800
vn -0.422600 0.447800 -0.788000
vn -0.207500 0.562400 -0.800400
vn 0.008500 0.338100 -0.941100
vn 0.025000 0.575100 -0.817700
vn 0.209800 0.513900 -0.831800
vn 0.365300 0.391700 -0.844500
vn 0.478900 0.197400 -0.855400
vn 0.508100 -0.007500 -0.861300
vn -0.025000 0.575100 -0.817700
vn 0.422200 0.450000 -0.786900
vn 0.207500 0.562400 -0.800400
vn 0.403000 -0.303800 0.863300
vn -0.000000 -0.468400 0.883500
vn 0.469900 -0.187500 0.862600
vn 0.508100 -0.007500 0.861300
vn 0.478900 0.197400 0.855400
vn 0.365300 0.391700 0.844500
vn 0.209800 0.513900 0.831800
vn 0.025000 0.575100 0.817700
vn -0.207500 0.562400 0.800400
vn -0.437800 0.447200 0.780000
vn -0.008500 0.349700 0.936800
vn 0.438200 0.445000 0.781000
vn 0.207500 0.562400 0.800400
vn -0.025000 0.575100 0.817700
vn -0.209800 0.513900 0.831800
vn -0.365300 0.391700 0.844500
vn -0.478900 0.197400 0.855400
vn -0.508100 -0.007500 0.861300
vn -0.469900 -0.187500 0.862600
vn -0.403000 -0.303800 0.863300
s 1
f 85/1/1 86/2/2 87/3/3
f 88/4/4 89/5/5 90/6/6
f 87/3/3 88/4/4 90/6/6
f 85/1/1 87/3/3 90/6/6
f 90/6/6 91/7/7 81/8/8
f 81/8/8 82/9/9 83/10/10
f 90/6/6 81/8/8 83/10/10
f 85/1/1 90/6/6 83/10/10
f 85/1/1 83/10/10 84/11/11
f 61/12/12 51/13/13 52/14/14
f 52/14/14 22/15/15 61/12/12
f 22/15/15 52/14/14 53/16/16
f 53/16/16 23/17/17 22/15/15
f 23/17/17 53/16/16 54/18/18
f 54/18/18 24/19/19 23/17/17
f 24/19/19 54/18/18 55/20/20
f 55/20/20 25/21/21 24/19/19
f 25/21/21 55/20/20 56/22/22
f 56/22/22 26/23/23 25/21/21
f 26/23/23 56/22/22 57/24/24
f 57/24/24 27/25/25 26/23/23
f 27/25/25 57/24/24 58/26/26
f 58/26/26 28/27/27 27/25/25
f 28/27/27 58/26/26 59/28/28
f 59/28/28 29/29/29 28/27/27
f 29/29/29 59/28/28 20/30/30
f 20/30/30 30/31/31 29/29/29
f 30/31/31 20/30/30 1/32/32
f 1/32/32 71/33/33 30/31/31
f 71/34/33 1/35/32 42/36/34
f 42/36/34 32/37/35 71/34/33
f 32/37/35 42/36/34 43/38/36
f 43/38/36 33/39/37 32/37/35
f 33/39/37 43/38/36 44/40/38
f 44/40/38 34/41/39 33/39/37
f 34/41/39 44/40/38 45/42/40
f 45/42/40 35/43/41 34/41/39
f 35/43/41 45/42/40 46/44/42
f 46/44/42 36/45/43 35/43/41
f 36/45/43 46/44/42 47/46/44
f 47/46/44 37/47/45 36/45/43
f 37/47/45 47/46/44 48/48/46
f 48/48/46 38/49/47 37/47/45
f 38/49/47 48/48/46 49/50/48
f 49/50/48 39/51/49 38/49/47
f 39/51/49 49/50/48 50/52/50
f 50/52/50 80/53/51 39/51/49
f 80/53/51 50/52/50 51/54/13
f 51/54/13 61/55/12 80/53/51
f 118/56/52 119/57/53 120/58/54
f 101/59/55 102/60/56 112/61/57
f 120/58/54 101/59/55 112/61/57
f 112/61/57 113/62/58 114/63/59
f 114/63/59 115/64/60 116/65/61
f 112/61/57 114/63/59 116/65/61
f 120/58/54 112/61/57 116/65/61
f 118/56/52 120/58/54 116/65/61
f 118/56/52 116/65/61 117/66/62
f 109/67/63 110/68/64 111/69/65
f 112/61/57 102/60/56 103/70/66
f 111/69/65 112/61/57 103/70/66
f 103/70/66 104/71/67 105/72/68
f 105/72/68 106/73/69 107/74/70
f 103/70/66 105/72/68 107/74/70
f 111/69/65 103/70/66 107/74/70
f 109/67/63 111/69/65 107/74/70
f 109/67/63 107/74/70 108/75/71
f 98/76/72 99/77/73 100/78/74
f 81/8/8 91/7/7 92/79/75
f 100/78/74 81/8/8 92/79/75
f 92/79/75 93/80/76 94/81/77
f 94/81/77 95/82/78 96/83/79
f 92/79/75 94/81/77 96/83/79
f 100/78/74 92/79/75 96/83/79
f 98/76/72 100/78/74 96/83/79
f 98/76/72 96/83/79 97/84/80
f 12/85/81 52/86/14 51/87/13
f 51/87/13 11/88/82 12/85/81
f 11/88/82 51/87/13 50/89/50
f 50/89/50 10/90/83 11/88/82
f 13/91/84 53/92/16 52/86/14
f 52/86/14 12/85/81 13/91/84
f 10/90/83 50/89/50 49/93/48
f 49/93/48 9/94/85 10/90/83
f 9/94/85 49/93/48 48/95/46
f 48/95/46 8/96/86 9/94/85
f 8/96/86 48/95/46 47/97/44
f 47/97/44 7/98/87 8/96/86
f 7/98/87 47/97/44 46/99/42
f 46/99/42 6/100/88 7/98/87
f 6/100/88 46/99/42 45/101/40
f 45/101/40 5/102/89 6/100/88
f 60/103/90 20/104/30 59/105/28
f 59/105/28 19/106/91 60/103/90
f 41/107/92 1/108/32 20/104/30
f 20/104/30 60/103/90 41/107/92
f 19/106/91 59/105/28 58/109/26
f 58/109/26 18/110/93 19/106/91
f 18/110/93 58/109/26 57/111/24
f 57/111/24 17/112/94 18/110/93
f 17/112/94 57/111/24 56/113/22
f 56/113/22 16/114/95 17/112/94
f 16/114/95 56/113/22 55/115/20
f 55/115/20 15/116/96 16/114/95
f 15/116/96 55/115/20 54/117/18
f 54/117/18 14/118/97 15/116/96
f 14/118/97 54/117/18 53/92/16
f 53/92/16 13/91/84 14/118/97
f 5/102/89 45/101/40 44/119/38
f 44/119/38 4/120/98 5/102/89
f 42/121/34 1/108/32 41/107/92
f 41/107/92 2/122/99 42/121/34
f 3/123/100 43/124/36 42/121/34
f 42/121/34 2/122/99 3/123/100
f 4/120/98 44/119/38 43/124/36
f 43/124/36 3/123/100 4/120/98
f 62/125/101 21/126/102 61/127/12
f 61/127/12 22/128/15 62/125/101
f 23/129/17 63/130/103 62/125/101
f 62/125/101 22/128/15 23/129/17
f 24/131/19 64/132/104 63/130/103
f 63/130/103 23/129/17 24/131/19
f 25/133/21 65/134/105 64/132/104
f 64/132/104 24/131/19 25/133/21
f 26/135/23 66/136/106 65/134/105
f 65/134/105 25/133/21 26/135/23
f 27/137/25 67/138/107 66/136/106
f 66/136/106 26/135/23 27/137/25
f 28/139/27 68/140/108 67/138/107
f 67/138/107 27/137/25 28/139/27
f 29/141/29 69/142/109 68/140/108
f 68/140/108 28/139/27 29/141/29
f 30/143/31 70/144/110 69/142/109
f 69/142/109 29/141/29 30/143/31
f 71/145/33 31/146/111 70/144/110
f 70/144/110 30/143/31 71/145/33
f 72/147/112 31/146/111 71/145/33
f 71/145/33 32/148/35 72/147/112
f 33/149/37 73/150/113 72/147/112
f 72/147/112 32/148/35 33/149/37
f 34/151/39 74/152/114 73/150/113
f 73/150/113 33/149/37 34/151/39
f 35/153/41 75/154/115 74/152/114
f 74/152/114 34/151/39 35/153/41
f 36/155/43 76/156/116 75/154/115
f 75/154/115 35/153/41 36/155/43
f 37/157/45 77/158/117 76/156/116
f 76/156/116 36/155/43 37/157/45
f 38/159/47 78/160/118 77/158/117
f 77/158/117 37/157/45 38/159/47
f 39/161/49 79/162/119 78/160/118
f 78/160/118 38/159/47 39/161/49
f 80/163/51 40/164/120 79/162/119
f 79/162/119 39/161/49 80/163/51
f 61/127/12 21/126/102 40/164/120
f 40/164/120 80/163/51 61/127/12
f 82/9/9 81/8/8 21/126/102
f 21/126/102 62/125/101 82/9/9
f 83/10/10 82/9/9 62/125/101
f 62/125/101 63/130/103 83/10/10
f 84/11/11 83/10/10 63/130/103
f 63/130/103 64/132/104 84/11/11
f 85/1/1 84/11/11 64/132/104
f 64/132/104 65/134/105 85/1/1
f 86/2/2 85/1/1 65/134/105
f 65/134/105 66/136/106 86/2/2
f 87/3/3 86/2/2 66/136/106
f 66/136/106 67/138/107 87/3/3
f 88/4/4 87/3/3 67/138/107
f 67/138/107 68/140/108 88/4/4
f 89/5/5 88/4/4 68/140/108
f 68/140/108 69/142/109 89/5/5
f 90/6/6 89/5/5 69/142/109
f 69/142/109 70/144/110 90/6/6
f 91/7/7 90/6/6 70/144/110
f 70/144/110 31/146/111 91/7/7
f 92/79/75 91/7/7 31/146/111
f 31/146/111 72/147/112 92/79/75
f 93/80/76 92/79/75 72/147/112
f 72/147/112 73/150/113 93/80/76
f 94/81/77 93/80/76 73/150/113
f 73/150/113 74/152/114 94/81/77
f 95/82/78 94/81/77 74/152/114
f 74/152/114 75/154/115 95/82/78
f 96/83/79 95/82/78 75/154/115
f 75/154/115 76/156/116 96/83/79
f 97/84/80 96/83/79 76/156/116
f 76/156/116 77/158/117 97/84/80
f 98/76/72 97/84/80 77/158/117
f 77/158/117 78/160/118 98/76/72
f 99/77/73 98/76/72 78/160/118
f 78/160/118 79/162/119 99/77/73
f 100/78/74 99/77/73 79/162/119
f 79/162/119 40/164/120 100/78/74
f 81/8/8 100/78/74 40/164/120
f 40/164/120 21/126/102 81/8/8
f 102/60/56 101/59/55 12/85/81
f 12/85/81 11/88/82 102/60/56
f 103/70/66 102/60/56 11/88/82
f 11/88/82 10/90/83 103/70/66
f 104/71/67 103/70/66 10/90/83
f 10/90/83 9/94/85 104/71/67
f 105/72/68 104/71/67 9/94/85
f 9/94/85 8/96/86 105/72/68
f 106/73/69 105/72/68 8/96/86
f 8/96/86 7/98/87 106/73/69
f 107/74/70 106/73/69 7/98/87
f 7/98/87 6/100/88 107/74/70
f 108/75/71 107/74/70 6/100/88
f 6/100/88 5/102/89 108/75/71
f 109/67/63 108/75/71 5/102/89
f 5/102/89 4/120/98 109/67/63
f 110/68/64 109/67/63 4/120/98
f 4/120/98 3/123/100 110/68/64
f 111/69/65 110/68/64 3/123/100
f 3/123/100 2/122/99 111/69/65
f 112/61/57 111/69/65 2/122/99
f 2/122/99 41/107/92 112/61/57
f 113/62/58 112/61/57 41/107/92
f 41/107/92 60/103/90 113/62/58
f 114/63/59 113/62/58 60/103/90
f 60/103/90 19/106/91 114/63/59
f 115/64/60 114/63/59 19/106/91
f 19/106/91 18/110/93 115/64/60
f 116/65/61 115/64/60 18/110/93
f 18/110/93 17/112/94 116/65/61
f 117/66/62 116/65/61 17/112/94
f 17/112/94 16/114/95 117/66/62
f 118/56/52 117/66/62 16/114/95
f 16/114/95 15/116/96 118/56/52
f 119/57/53 118/56/52 15/116/96
f 15/116/96 14/118/97 119/57/53
f 120/58/54 119/57/53 14/118/97
f 14/118/97 13/91/84 120/58/54
f 101/59/55 120/58/54 13/91/84
f 13/91/84 12/85/81 101/59/55
